<svg width="33" height="32" viewBox="0 0 33 32" fill="none" xmlns="http://www.w3.org/2000/svg">
<path d="M24.1802 2.6167H8.4787C7.04303 2.6167 5.87872 3.77303 5.86328 5.20503V26.2384C5.86603 26.3402 5.87401 26.4433 5.88866 26.5472C6.0721 27.8507 7.25198 28.7838 8.56845 28.7838H25.2161C25.3666 28.7838 25.4887 28.6617 25.4887 28.5112V27.748C25.4887 27.5974 25.3666 27.4755 25.2161 27.4755H24.1802V24.8587C25.6254 24.8587 26.7971 23.6872 26.7971 22.242V5.23342C26.7971 3.78821 25.6254 2.6167 24.1802 2.6167ZM22.8717 27.4756H8.53496C7.8516 27.4756 7.24125 26.9759 7.17648 26.2956C7.10217 25.5153 7.7137 24.8589 8.47883 24.8589H22.8719L22.8717 27.4756Z" fill="white"/>
</svg>
