<svg width="75" height="82" viewBox="0 0 75 82" fill="none" xmlns="http://www.w3.org/2000/svg">
<rect x="0.538086" y="0.678101" width="73.9235" height="80.6438" rx="5" fill="white"/>
<path d="M23.7969 23.079H30.1213V27.4108H18.1367V7.05148H23.7969V23.079ZM54.2009 16.9568C55.3945 17.2263 56.3379 17.8231 57.031 18.7472C57.7433 19.6521 58.0995 20.6917 58.0995 21.8661C58.0995 23.5988 57.5027 24.9561 56.309 25.938C55.1154 26.9198 53.4404 27.4108 51.2842 27.4108H41.2056V7.05148H50.9665C53.0458 7.05148 54.6726 7.51354 55.847 8.43765C57.0406 9.36176 57.6374 10.6613 57.6374 12.3362C57.6374 13.5299 57.3198 14.531 56.6844 15.3396C56.0684 16.1289 55.2405 16.668 54.2009 16.9568ZM46.8658 15.1374H49.7247C51.1494 15.1374 51.8617 14.5502 51.8617 13.3759C51.8617 12.163 51.1494 11.5565 49.7247 11.5565H46.8658V15.1374ZM50.1579 22.848C51.5826 22.848 52.2949 22.2512 52.2949 21.0575C52.2949 20.4414 52.1024 19.9698 51.7174 19.6425C51.3516 19.3152 50.8221 19.1515 50.129 19.1515H46.8658V22.848H50.1579ZM28.4463 51.4108L24.4033 43.9024H23.7969V51.4108H18.1367V31.0515H27.0602C28.6966 31.0515 30.0828 31.3403 31.2186 31.9178C32.3545 32.4762 33.2113 33.2559 33.7888 34.257C34.3664 35.2389 34.6552 36.3459 34.6552 37.578C34.6552 38.9642 34.2701 40.1867 33.5 41.2456C32.7492 42.2852 31.6422 43.0264 30.179 43.4692L34.7707 51.4108H28.4463ZM23.7969 40.0327H26.5981C27.3682 40.0327 27.9458 39.8498 28.3308 39.484C28.7158 39.1182 28.9084 38.5887 28.9084 37.8957C28.9084 37.2411 28.7062 36.7309 28.3019 36.3651C27.9169 35.9801 27.3489 35.7875 26.5981 35.7875H23.7969V40.0327ZM51.2641 48.0897H44.0445L42.9471 51.4108H36.9982L44.4199 31.0515H50.9464L58.3393 51.4108H52.3615L51.2641 48.0897ZM49.8491 43.758L47.6543 37.1737L45.4884 43.758H49.8491ZM28.4463 75.4108L24.4033 67.9024H23.7969V75.4108H18.1367V55.0515H27.0602C28.6966 55.0515 30.0828 55.3403 31.2186 55.9178C32.3545 56.4762 33.2113 57.2559 33.7888 58.257C34.3664 59.2389 34.6552 60.3459 34.6552 61.578C34.6552 62.9642 34.2701 64.1867 33.5 65.2456C32.7492 66.2852 31.6422 67.0264 30.179 67.4692L34.7707 75.4108H28.4463ZM23.7969 64.0327H26.5981C27.3682 64.0327 27.9458 63.8498 28.3308 63.484C28.7158 63.1182 28.9084 62.5887 28.9084 61.8957C28.9084 61.2411 28.7062 60.7309 28.3019 60.3651C27.9169 59.9801 27.3489 59.7875 26.5981 59.7875H23.7969V64.0327ZM58.3393 55.0515L51.1775 68.942V75.4108H45.4884V68.942L38.3266 55.0515H44.7953L48.3763 62.9064L51.9572 55.0515H58.3393Z" fill="#0A004A"/>
<path d="M37.9823 7.05148V27.4108H32.3221V7.05148H37.9823Z" fill="#FF7629"/>
</svg>
