<svg width="88" height="37" viewBox="0 0 88 37" fill="none" xmlns="http://www.w3.org/2000/svg">
<path d="M30.9929 5.99531C31.6047 5.99531 32.0838 6.18002 32.4302 6.54945C32.7823 6.91888 32.9583 7.42395 32.9583 8.06468V10.896H31.2613V8.2898C31.2613 8.03005 31.1891 7.82801 31.0448 7.68371C30.9005 7.5394 30.7042 7.46725 30.456 7.46725C30.2078 7.46725 30.0116 7.5394 29.8673 7.68371C29.723 7.82801 29.6508 8.03005 29.6508 8.2898V10.896H27.9537V8.2898C27.9537 8.03005 27.8816 7.82801 27.7373 7.68371C27.5987 7.5394 27.4054 7.46725 27.1572 7.46725C26.9032 7.46725 26.704 7.5394 26.5597 7.68371C26.4154 7.82801 26.3433 8.03005 26.3433 8.2898V10.896H24.6462V6.0386H26.3433V6.67933C26.4933 6.47152 26.6867 6.30701 26.9234 6.18579C27.1658 6.0588 27.4429 5.99531 27.7546 5.99531C28.1125 5.99531 28.43 6.07323 28.707 6.22909C28.9899 6.38494 29.2121 6.60429 29.3737 6.88713C29.5469 6.6216 29.7749 6.40803 30.0577 6.2464C30.3406 6.07901 30.6523 5.99531 30.9929 5.99531ZM33.611 8.46297C33.611 7.96078 33.7005 7.52208 33.8794 7.14688C34.0642 6.77168 34.3124 6.48307 34.6241 6.28104C34.9415 6.07901 35.2937 5.97799 35.6804 5.97799C36.0152 5.97799 36.3038 6.04437 36.5462 6.17713C36.7887 6.3099 36.9763 6.48884 37.109 6.71396V6.0386H38.8061V10.896H37.109V10.2206C36.9763 10.4458 36.7858 10.6247 36.5376 10.7575C36.2952 10.8902 36.0094 10.9566 35.6804 10.9566C35.2937 10.9566 34.9415 10.8556 34.6241 10.6536C34.3124 10.4515 34.0642 10.1629 33.8794 9.78771C33.7005 9.40674 33.611 8.96516 33.611 8.46297ZM37.109 8.46297C37.109 8.15126 37.0225 7.90594 36.8493 7.727C36.6819 7.54806 36.4741 7.45859 36.2259 7.45859C35.9719 7.45859 35.7612 7.54806 35.5938 7.727C35.4264 7.90017 35.3427 8.14549 35.3427 8.46297C35.3427 8.77467 35.4264 9.02288 35.5938 9.2076C35.7612 9.38654 35.9719 9.47601 36.2259 9.47601C36.4741 9.47601 36.6819 9.38654 36.8493 9.2076C37.0225 9.02865 37.109 8.78045 37.109 8.46297ZM39.4961 8.46297C39.4961 7.96078 39.5856 7.52208 39.7645 7.14688C39.9492 6.77168 40.2003 6.48307 40.5178 6.28104C40.8353 6.07901 41.1874 5.97799 41.5741 5.97799C41.8858 5.97799 42.1629 6.04437 42.4053 6.17713C42.6535 6.30413 42.8469 6.48018 42.9854 6.7053V4.48873H44.6912V10.896H42.9854V10.2206C42.8527 10.4458 42.6651 10.6247 42.4226 10.7575C42.1802 10.8902 41.8945 10.9566 41.5655 10.9566C41.1787 10.9566 40.8266 10.8556 40.5091 10.6536C40.1974 10.4515 39.9492 10.1629 39.7645 9.78771C39.5856 9.40674 39.4961 8.96516 39.4961 8.46297ZM42.9941 8.46297C42.9941 8.15126 42.9075 7.90594 42.7343 7.727C42.5669 7.54806 42.3591 7.45859 42.1109 7.45859C41.857 7.45859 41.6463 7.54806 41.4789 7.727C41.3115 7.90017 41.2278 8.14549 41.2278 8.46297C41.2278 8.77467 41.3115 9.02288 41.4789 9.2076C41.6463 9.38654 41.857 9.47601 42.1109 9.47601C42.3591 9.47601 42.5669 9.38654 42.7343 9.2076C42.9075 9.02865 42.9941 8.78045 42.9941 8.46297ZM50.2991 8.41102C50.2991 8.54378 50.2905 8.67654 50.2732 8.80931H47.0609C47.0782 9.07483 47.1503 9.27398 47.2773 9.40674C47.4101 9.53373 47.5775 9.59723 47.7795 9.59723C48.0624 9.59723 48.2644 9.47024 48.3856 9.21625H50.1952C50.1202 9.55105 49.973 9.85121 49.7537 10.1167C49.5401 10.3765 49.2688 10.5814 48.9398 10.7315C48.6107 10.8816 48.2471 10.9566 47.8488 10.9566C47.3697 10.9566 46.9425 10.8556 46.5673 10.6536C46.1979 10.4515 45.9064 10.1629 45.6928 9.78771C45.485 9.41251 45.3811 8.97093 45.3811 8.46297C45.3811 7.95501 45.485 7.51631 45.6928 7.14688C45.9006 6.77168 46.1893 6.48307 46.5587 6.28104C46.9339 6.07901 47.3639 5.97799 47.8488 5.97799C48.3279 5.97799 48.7522 6.07612 49.1216 6.27238C49.491 6.46864 49.7796 6.75148 49.9874 7.12091C50.1952 7.48456 50.2991 7.9146 50.2991 8.41102ZM48.5674 7.98675C48.5674 7.77895 48.4982 7.61733 48.3596 7.50188C48.2211 7.38066 48.0479 7.32005 47.8401 7.32005C47.6323 7.32005 47.462 7.37777 47.3293 7.49322C47.1965 7.60289 47.1099 7.76741 47.0695 7.98675H48.5674ZM54.348 6.71396C54.4807 6.48307 54.6683 6.30413 54.9108 6.17713C55.1532 6.04437 55.4389 5.97799 55.768 5.97799C56.1547 5.97799 56.5039 6.07901 56.8156 6.28104C57.1331 6.48307 57.3813 6.77168 57.5603 7.14688C57.745 7.52208 57.8373 7.96078 57.8373 8.46297C57.8373 8.96516 57.745 9.40674 57.5603 9.78771C57.3813 10.1629 57.1331 10.4515 56.8156 10.6536C56.5039 10.8556 56.1547 10.9566 55.768 10.9566C55.4389 10.9566 55.1532 10.8931 54.9108 10.7661C54.6683 10.6334 54.4807 10.4515 54.348 10.2206V10.896H52.6509V4.48873H54.348V6.71396ZM56.1143 8.46297C56.1143 8.14549 56.0277 7.90017 55.8546 7.727C55.6872 7.54806 55.4794 7.45859 55.2311 7.45859C54.9829 7.45859 54.7722 7.54806 54.5991 7.727C54.4317 7.90594 54.348 8.15126 54.348 8.46297C54.348 8.78045 54.4317 9.02865 54.5991 9.2076C54.7722 9.38654 54.9829 9.47601 55.2311 9.47601C55.4794 9.47601 55.6872 9.38654 55.8546 9.2076C56.0277 9.02288 56.1143 8.77467 56.1143 8.46297ZM63.7657 6.0386L60.6833 13.2078H58.839L59.9992 10.6882L58.0078 6.0386H59.8953L60.917 8.79199L61.9041 6.0386H63.7657Z" fill="white"/>
<path d="M15.1883 36.3563H10.43C10.1764 35.7379 9.92336 35.1206 9.67032 34.5032C8.35342 31.2909 7.03599 28.0786 5.72281 24.8647C5.69778 24.8036 5.69671 24.7169 5.71909 24.6552C6.41056 22.7707 7.10684 20.8873 7.80205 19.0043C7.81643 18.965 7.83401 18.9262 7.86438 18.8528C10.3117 24.7025 12.7468 30.5209 15.1883 36.3558V36.3563Z" fill="#FFD568"/>
<path d="M0.539866 36.3564H1.03264C3.38782 30.7273 5.73715 25.1131 8.09766 19.4712C8.04065 19.3154 7.98312 19.1601 7.92559 19.0043C7.9112 18.965 7.89362 18.9267 7.86326 18.8528C5.41591 24.7025 2.98135 30.5215 0.539866 36.3564Z" fill="#FFD568"/>
<g clip-path="url(#clip0_962_184)">
<path d="M1.01643 36.3564H1.5092C3.86438 30.7273 6.21371 25.1131 8.57422 19.4712C8.51722 19.3154 8.45968 19.1601 8.40215 19.0043C8.38776 18.965 8.37018 18.9267 8.33982 18.8528C5.89247 24.7025 3.45791 30.5215 1.01643 36.3564Z" fill="#FFD568"/>
</g>
<path d="M22.8908 36.3584H18.7812V18.8557H22.8908V36.3584Z" fill="#FFD568"/>
<path d="M26.0361 27.5979C26.61 27.6937 27.1893 27.7639 27.7561 27.8919C28.7698 28.1211 29.7063 28.5251 30.529 29.1828C31.1448 29.6755 31.5095 30.3114 31.7164 31.0535C31.9206 31.7885 31.9669 32.5437 31.9908 33.3005C32.0121 33.98 32.0099 34.6605 32.0518 35.3389C32.0714 35.6553 32.1525 35.9721 32.2386 36.2792C32.3034 36.5112 32.4754 36.6707 32.7182 36.7671C32.6349 36.7774 32.5522 36.7916 32.4689 36.7965C31.6386 36.8465 30.8235 36.7992 30.0324 36.4997C29.0709 36.1355 28.5303 35.431 28.3168 34.4509C28.1862 33.8509 28.1464 33.2406 28.1257 32.6286C28.1078 32.0989 28.1007 31.568 28.0697 31.0388C28.0424 30.5635 27.9831 30.0887 27.7974 29.6445C27.5998 29.1713 27.2366 28.8256 26.861 28.4946C26.4134 28.1004 25.906 27.8086 25.3218 27.6294C25.3408 27.6126 25.3506 27.5962 25.3637 27.593C25.9642 27.4361 26.3895 27.0496 26.7183 26.5454C27.1283 25.9171 27.3167 25.2099 27.4092 24.4754C27.5083 23.6903 27.5252 22.903 27.4185 22.1163C27.3308 21.4727 27.1528 20.8558 26.8054 20.3016C26.3192 19.5257 25.6299 19.0341 24.7207 18.8528C25.1094 18.8909 25.4998 18.9159 25.8864 18.9704C26.9432 19.1185 27.9673 19.3804 28.9087 19.9014C29.6813 20.3288 30.3068 20.9032 30.6738 21.7242C30.9498 22.3428 31.0282 22.9945 30.9732 23.6642C30.9373 24.0992 30.8605 24.5255 30.6967 24.9338C30.3433 25.8153 29.7243 26.4534 28.8902 26.8868C28.0615 27.3175 27.1691 27.5238 26.2425 27.593C26.1717 27.5984 26.1009 27.6087 26.0301 27.6169C26.0323 27.6104 26.0345 27.6044 26.0367 27.5979H26.0361Z" fill="#FFD568"/>
<path d="M42.7281 18.8549C42.7203 18.8757 42.7193 18.9044 42.7047 18.9164C42.3692 19.1955 42.1543 19.5627 41.9686 19.9467C41.5404 20.8298 41.3145 21.774 41.1569 22.7359C40.7975 24.9315 40.7668 27.1433 40.8507 29.3592C40.8972 30.5919 41.0145 31.8188 41.2618 33.0295C41.4438 33.921 41.6864 34.7927 42.1449 35.5897C42.2946 35.85 42.4574 36.1009 42.6932 36.2955C42.7114 36.3106 42.7161 36.3419 42.7271 36.3659L42.7281 36.367C42.4511 36.2434 42.1705 36.1265 41.8972 35.9956C40.5445 35.3472 39.3573 34.476 38.375 33.3399C37.3948 32.2064 36.7428 30.9022 36.4736 29.427C36.17 27.763 36.2832 26.125 36.8951 24.5351C37.3009 23.4808 37.8967 22.5455 38.6577 21.7135C39.7803 20.4866 41.123 19.5706 42.64 18.9013C42.6713 18.8877 42.7005 18.869 42.7307 18.8528L42.7297 18.8554L42.7281 18.8549Z" fill="#FFD568"/>
<path d="M47.1616 18.8562C48.0453 19.2302 48.8726 19.7039 49.6452 20.2725C50.8476 21.1572 51.8413 22.2297 52.5575 23.5453C53.0327 24.418 53.3426 25.3502 53.4876 26.3345C53.7176 27.8942 53.582 29.4185 53.0119 30.8931C52.6144 31.9218 52.0218 32.8321 51.2664 33.6339C50.1465 34.8222 48.8121 35.697 47.3014 36.3083C47.2519 36.3282 47.195 36.3308 47.1418 36.3417L47.1387 36.3454C47.2915 36.1873 47.4657 36.0454 47.593 35.8691C48.001 35.3016 48.2357 34.6532 48.4308 33.9881C48.7026 33.0606 48.8471 32.1096 48.9524 31.1514C49.134 29.4946 49.1533 27.8327 49.1006 26.1702C49.0536 24.6939 48.9248 23.2244 48.5815 21.7826C48.4005 21.0215 48.1715 20.2751 47.762 19.598C47.6066 19.3408 47.4324 19.0977 47.1929 18.9094C47.1794 18.8985 47.1736 18.8771 47.1642 18.8609L47.1616 18.8578V18.8562Z" fill="#FFD568"/>
<path d="M42.7302 18.8528C42.733 18.8562 42.7353 18.8607 42.7387 18.8618C42.7409 18.8624 42.7449 18.8584 42.7477 18.8567C42.7415 18.8567 42.7353 18.8562 42.7285 18.8556L42.7296 18.8528H42.7302Z" fill="#FFD568"/>
<path d="M42.7266 36.3655C42.735 36.3638 42.7435 36.3616 42.7525 36.3599C42.7441 36.3621 42.7362 36.3644 42.7277 36.3672L42.7266 36.3661V36.3655Z" fill="#FFD568"/>
<path d="M47.166 18.8598L47.1553 18.8616C47.1553 18.8616 47.163 18.8568 47.163 18.8562L47.166 18.8592V18.8598Z" fill="#FFD568"/>
<path d="M47.1422 36.3408C47.1422 36.3444 47.1422 36.3486 47.1422 36.3521C47.1411 36.3498 47.1399 36.3474 47.1387 36.345L47.1422 36.3408Z" fill="#FFD568"/>
<path d="M71.8348 36.3563H67.0765C66.8229 35.7379 66.5698 35.1206 66.3168 34.5032C64.9999 31.2909 63.6825 28.0786 62.3693 24.8647C62.3443 24.8036 62.3432 24.7169 62.3656 24.6552C63.057 22.7707 63.7533 20.8873 64.4485 19.0043C64.4629 18.965 64.4805 18.9262 64.5109 18.8528C66.9582 24.7025 69.3933 30.5209 71.8348 36.3558V36.3563Z" fill="#FFD568"/>
<path d="M57.1864 36.3564H57.6791C60.0343 30.7273 62.3836 25.1131 64.7441 19.4712C64.6871 19.3154 64.6296 19.1601 64.5721 19.0043C64.5577 18.965 64.5401 18.9267 64.5097 18.8528C62.0624 24.7025 59.6278 30.5215 57.1864 36.3564Z" fill="#FFD568"/>
<g clip-path="url(#clip1_962_184)">
<path d="M57.6629 36.3566H58.1557C60.5109 30.7275 62.8602 25.1133 65.2207 19.4715C65.1637 19.3156 65.1062 19.1604 65.0486 19.0046C65.0342 18.9652 65.0167 18.9269 64.9863 18.853C62.539 24.7028 60.1044 30.5217 57.6629 36.3566Z" fill="#FFD568"/>
</g>
<path d="M75.4371 18.8555C75.5656 18.8555 75.6789 18.8555 75.7916 18.8555C76.8571 18.8555 77.9231 18.8571 78.9886 18.8528C79.0921 18.8528 79.152 18.8876 79.2108 18.9688C81.8944 22.6754 84.5802 26.381 87.2633 30.0877C87.3052 30.1459 87.3412 30.2249 87.3417 30.294C87.3461 32.4196 87.345 34.5451 87.345 36.6707V36.7812C87.2916 36.7148 87.2595 36.6767 87.2295 36.6375C84.8976 33.5776 82.5652 30.5183 80.2333 27.4579C78.6565 25.389 77.0803 23.3206 75.5057 21.25C75.4676 21.1994 75.4312 21.1308 75.4312 21.0704C75.4263 20.3631 75.4279 19.6564 75.4284 18.9492C75.4284 18.923 75.4328 18.8969 75.4371 18.8544V18.8555Z" fill="#FFD568"/>
<rect x="75.4277" y="20.3835" width="1.00001" height="16.003" fill="#FFD568"/>
<rect x="86.3447" y="18.8528" width="1.00001" height="16.003" fill="#FFD568"/>
<defs>
<clipPath id="clip0_962_184">
<rect width="7.56472" height="14.889" fill="white" transform="translate(1.00781 21.4778)"/>
</clipPath>
<clipPath id="clip1_962_184">
<rect width="7.56472" height="14.889" fill="white" transform="translate(57.6543 21.478)"/>
</clipPath>
</defs>
</svg>
