<svg width="33" height="32" viewBox="0 0 33 32" fill="none" xmlns="http://www.w3.org/2000/svg">
<path d="M28.0261 21.8368L29.0861 21.2249C29.3989 21.0442 29.5061 20.6442 29.3255 20.3313L28.0482 18.1187C27.8675 17.8059 27.4674 17.6986 27.1546 17.8793L26.0685 18.5062C25.8654 18.6235 25.6193 18.6092 25.4164 18.4919C25.4142 18.4905 25.4119 18.4892 25.4097 18.4881C25.2075 18.3714 25.0733 18.1654 25.0733 17.932V16.5568C25.0733 16.1954 24.7805 15.9026 24.4192 15.9026H21.8024C21.4412 15.9026 21.1483 16.1954 21.1483 16.5568V17.932C21.1483 18.1655 21.0143 18.3715 20.812 18.4881L20.8053 18.4919C20.6025 18.6093 20.3564 18.6235 20.1532 18.5062L19.0672 17.8793C18.7543 17.6986 18.3543 17.8057 18.1736 18.1187L16.8961 20.3313C16.7154 20.6441 16.8227 21.0442 17.1355 21.2249L18.2069 21.8435C18.4186 21.9657 18.5325 22.1958 18.5322 22.4404V22.4485C18.5325 22.693 18.4186 22.923 18.2069 23.0453L17.1355 23.6639C16.8227 23.8446 16.7154 24.2446 16.8961 24.5576L18.1736 26.77C18.3543 27.0828 18.7542 27.1901 19.0672 27.0094L20.1532 26.3823C20.3563 26.2651 20.6024 26.2794 20.8053 26.3967C20.8076 26.398 20.8098 26.3993 20.812 26.4006C21.0143 26.5173 21.1483 26.7233 21.1483 26.9567V28.3319C21.1483 28.6932 21.4412 28.9861 21.8024 28.9861H24.4192C24.7805 28.9861 25.0733 28.6932 25.0733 28.3319V26.9567C25.0733 26.7231 25.2075 26.5172 25.4097 26.4006C25.4119 26.3993 25.4142 26.398 25.4164 26.3967C25.6193 26.2792 25.8654 26.2651 26.0685 26.3823L27.1546 27.0094C27.4674 27.1901 27.8676 27.0828 28.0482 26.77L29.3255 24.5576C29.5062 24.2446 29.3991 23.8445 29.0861 23.6639L28.0261 23.052C27.8108 22.9277 27.6784 22.6981 27.6784 22.4496V22.4396C27.6784 22.191 27.8108 21.9611 28.0261 21.8368ZM23.1108 24.407C22.027 24.407 21.1483 23.5283 21.1483 22.4444C21.1483 21.3606 22.027 20.4819 23.1108 20.4819C24.1947 20.4819 25.0733 21.3606 25.0733 22.4444C25.0733 23.5283 24.1947 24.407 23.1108 24.407ZM6.9974 21.2648L8.80124 20.2233C9.13841 20.0287 9.54714 20.0523 9.88404 20.2474C9.88784 20.2495 9.89137 20.2517 9.89516 20.2538C10.2312 20.4476 10.4537 20.7896 10.4537 21.1774V23.4613C10.4537 24.0613 10.9402 24.5477 11.5402 24.5477H14.8897C14.7983 23.7859 15.0228 23.0109 15.5504 22.4444C14.7877 21.6241 14.6088 20.3695 15.1952 19.3524L16.4741 17.1381C17.0516 16.1364 18.1914 15.6636 19.2735 15.8834C19.5322 14.912 20.3372 14.1631 21.3373 13.983C21.3129 13.8889 21.2987 13.7913 21.2987 13.6916V13.6749C21.2986 13.2621 21.5188 12.8807 21.8761 12.6742L23.6365 11.658C24.1562 11.3579 24.3343 10.6935 24.0342 10.1739L21.9127 6.4994C21.6127 5.97972 20.9482 5.80165 20.4287 6.10166L18.6248 7.14312C18.2877 7.3378 17.8789 7.31425 17.542 7.11917C17.5382 7.11708 17.5347 7.11486 17.5309 7.11276C17.1949 6.91899 16.9724 6.57699 16.9724 6.18919V3.90531C16.9724 3.3053 16.4859 2.81885 15.8859 2.81885H11.5402C10.9402 2.81885 10.4537 3.3053 10.4537 3.90531V6.18919C10.4537 6.57699 10.2312 6.91899 9.89516 7.11276C9.89137 7.11486 9.88784 7.11708 9.88404 7.11917C9.54714 7.31425 9.13841 7.3378 8.80124 7.14312L6.9974 6.10166C6.47772 5.80165 5.81334 5.97959 5.51333 6.4994L3.39182 10.1739C3.09181 10.6936 3.26988 11.358 3.78956 11.658L5.56893 12.6853C5.92062 12.8884 6.10942 13.2704 6.10903 13.6766V13.69C6.10942 14.0961 5.92062 14.4782 5.56893 14.6812L3.78956 15.7086C3.26988 16.0086 3.09181 16.673 3.39182 17.1926L5.51333 20.8672C5.81334 21.3869 6.47785 21.5647 6.9974 21.2648ZM13.7128 10.4241C15.513 10.4241 16.9721 11.8833 16.9721 13.6834C16.9721 15.4834 15.5129 16.9426 13.7128 16.9426C11.9128 16.9426 10.4536 15.4834 10.4536 13.6834C10.4536 11.8833 11.9128 10.4241 13.7128 10.4241Z" fill="white"/>
</svg>
