<svg width="24" height="24" viewBox="0 0 24 24" fill="none" xmlns="http://www.w3.org/2000/svg">
<path d="M2.25 2.375C2.25 1.9609 2.5859 1.625 3 1.625H5.2344C6.6187 1.625 7.7915 2.6606 7.9629 4.0342L8.2556 6.375H18.999C20.3001 6.375 21.2549 7.5978 20.9392 8.86L19.9392 12.86C19.7167 13.7503 18.9167 14.375 17.999 14.375H9.2559L9.5254 16.5298C9.6035 17.1543 10.1367 17.625 10.7656 17.625H21C21.4141 17.625 21.75 17.9609 21.75 18.375C21.75 18.7891 21.4141 19.125 21 19.125H20.5497C20.827 19.4683 21 19.8993 21 20.375C21 21.4796 20.1046 22.375 19 22.375C17.8954 22.375 17 21.4796 17 20.375C17 19.8993 17.173 19.4683 17.4503 19.125H12.5497C12.827 19.4683 13 19.8993 13 20.375C13 21.4796 12.1046 22.375 11 22.375C9.8954 22.375 9 21.4796 9 20.375C9 19.7822 9.2629 19.2554 9.6727 18.8891C8.8064 18.5107 8.1605 17.7043 8.0371 16.7158L6.4746 4.2202C6.3965 3.5957 5.8633 3.125 5.2344 3.125H3C2.5859 3.125 2.25 2.7891 2.25 2.375Z" fill="white"/>
</svg>
