<svg width="19" height="18" viewBox="0 0 19 18" fill="none" xmlns="http://www.w3.org/2000/svg">
<path d="M8.53759 0.821825C8.83694 -0.0994856 10.1404 -0.0994847 10.4397 0.821826L11.8687 5.21985C12.0026 5.63188 12.3865 5.91084 12.8198 5.91084H17.4441C18.4128 5.91084 18.8156 7.15045 18.0319 7.71985L14.2907 10.438C13.9402 10.6926 13.7936 11.144 13.9275 11.556L15.3565 15.954C15.6558 16.8754 14.6013 17.6415 13.8176 17.0721L10.0764 14.3539C9.72594 14.0993 9.25135 14.0993 8.90086 14.3539L5.15968 17.0721C4.37596 17.6415 3.32148 16.8754 3.62084 15.954L5.04984 11.556C5.18372 11.144 5.03706 10.6926 4.68657 10.438L0.945383 7.71985C0.16167 7.15045 0.564446 5.91084 1.53317 5.91084H6.15753C6.59076 5.91084 6.97471 5.63188 7.10859 5.21985L8.53759 0.821825Z" fill="#BDBDBD"/>
</svg>
